<svg xmlns="http://www.w3.org/2000/svg" width="3081" height="1187" viewBox="0 0 3081 1187" fill="none">
  <path d="M 1713.21 0 C 1713.485 0 1713.709 0.223 1713.709 0.495 C 1713.709 0.757 1713.928 0.972 1714.19 0.987 C 2152.968 26.228 2190.444 530.522 1902.259 704.197 C 1872.751 721.979 1861.536 761.925 1882.975 788.804 L 2021.425 962.377 C 2029.157 972.07 2044.401 970.496 2049.966 959.431 L 2486.86 90.743 C 2505.664 53.356 2559.328 53.356 2578.132 90.743 L 3075.547 1079.771 C 3092.51 1113.499 3067.842 1153.182 3029.911 1153.182 L 1207.57 1153.182 C 1179.391 1153.182 1156.546 1130.471 1156.546 1102.456 L 1156.546 894.53 C 1156.546 875.687 1126.072 869.272 1116.727 885.666 C 1014.18 1065.587 819.846 1187 596.982 1187 C 267.278 1187 0 921.281 0 593.5 C 0 265.719 267.278 0 596.982 0 C 819.845 0 1014.179 121.414 1116.727 301.334 C 1126.072 317.726 1156.545 311.312 1156.546 292.47 L 1156.546 50.726 C 1156.547 22.711 1179.391 0 1207.57 0 L 1713.21 0 Z" fill="currentColor" fill-rule="nonzero"></path>
</svg>
