<svg xmlns="http://www.w3.org/2000/svg" viewBox="0 0 59.767 51.242" fill="none"><path d="M 10.542 51.15 C 9.381 51.15 8.433 50.844 7.7 50.233 C 6.967 49.622 6.6 48.767 6.6 47.667 C 6.6 46.872 6.814 46.185 7.242 45.604 C 7.669 45.024 8.25 44.611 8.983 44.367 L 25.117 37.95 L 25.117 21.267 C 20.228 27.133 16.103 31.212 12.742 33.504 C 9.381 35.796 5.133 37.278 0 37.95 L 0 35.842 C 3.606 35.536 7.028 34.467 10.267 32.633 C 13.506 30.8 16.5 28.233 19.25 24.933 L 24.383 19.25 C 24.75 18.7 25.254 18.257 25.896 17.921 C 26.538 17.585 27.225 17.417 27.958 17.417 L 31.808 17.417 C 32.542 17.417 33.229 17.585 33.871 17.921 C 34.513 18.257 35.047 18.7 35.475 19.25 L 40.517 24.933 C 43.328 28.172 46.338 30.724 49.546 32.588 C 52.754 34.451 56.161 35.536 59.767 35.842 L 59.767 37.95 C 54.633 37.278 50.386 35.796 47.025 33.504 C 43.664 31.212 39.539 27.133 34.65 21.267 L 34.65 37.95 L 50.783 44.367 C 51.517 44.611 52.097 45.024 52.525 45.604 C 52.953 46.185 53.167 46.872 53.167 47.667 C 53.167 48.767 52.8 49.622 52.067 50.233 C 51.333 50.844 50.386 51.15 49.225 51.15 L 22.458 51.15 L 22.458 51.242 C 22.458 49.836 22.825 48.751 23.558 47.988 C 24.292 47.224 25.361 46.842 26.767 46.842 L 39.233 46.842 C 39.783 46.842 40.226 46.674 40.563 46.338 C 40.899 46.001 41.067 45.558 41.067 45.008 C 41.067 44.458 40.899 44.015 40.563 43.679 C 40.226 43.343 39.783 43.175 39.233 43.175 L 26.767 43.175 C 24.383 43.175 22.458 43.908 20.992 45.375 C 19.525 46.842 18.792 48.797 18.792 51.242 L 18.792 51.15 L 10.542 51.15 Z M 25.85 9.717 C 24.75 8.617 24.2 7.272 24.2 5.683 C 24.2 4.094 24.75 2.75 25.85 1.65 C 26.95 0.55 28.294 0 29.883 0 C 31.472 0 32.817 0.55 33.917 1.65 C 35.017 2.75 35.567 4.094 35.567 5.683 C 35.567 7.272 35.017 8.617 33.917 9.717 C 32.817 10.817 31.472 11.367 29.883 11.367 C 28.294 11.367 26.95 10.817 25.85 9.717 Z" fill="currentColor"></path></svg>
