<svg xmlns="http://www.w3.org/2000/svg" viewBox="0 0 56.1 49.133" fill="none"><path d="M 14.85 49.133 C 14.422 49.133 14.01 49.026 13.613 48.813 C 13.215 48.599 12.925 48.308 12.742 47.942 L 6.325 36.3 L 11.092 36.3 L 14.483 42.533 L 21.45 42.533 L 21.45 40.242 L 15.858 40.242 L 12.467 34.008 L 5.042 34.008 L 0.367 25.758 C 0.244 25.575 0.153 25.376 0.092 25.163 C 0.031 24.949 0 24.75 0 24.567 C 0 24.506 0.122 24.078 0.367 23.283 L 5.042 15.033 L 12.467 15.033 L 15.858 8.8 L 21.45 8.8 L 21.45 6.508 L 14.483 6.508 L 11.092 12.742 L 6.325 12.742 L 12.742 1.192 C 12.925 0.825 13.215 0.535 13.613 0.321 C 14.01 0.107 14.422 0 14.85 0 L 23.742 0 C 24.414 0 24.994 0.229 25.483 0.688 C 25.972 1.146 26.217 1.742 26.217 2.475 L 26.217 15.675 L 19.892 15.675 L 17.6 17.967 L 26.217 17.967 L 26.217 27.958 L 18.975 27.958 L 15.858 21.817 L 9.35 21.817 L 7.058 24.108 L 14.392 24.108 L 17.508 30.25 L 26.217 30.25 L 26.217 46.658 C 26.217 47.392 25.972 47.988 25.483 48.446 C 24.994 48.904 24.414 49.133 23.742 49.133 L 14.85 49.133 Z M 32.175 47.758 C 31.258 46.842 30.8 45.742 30.8 44.458 C 30.8 43.358 31.151 42.381 31.854 41.525 C 32.557 40.669 33.428 40.119 34.467 39.875 L 34.467 9.258 C 33.428 9.014 32.557 8.464 31.854 7.608 C 31.151 6.753 30.8 5.775 30.8 4.675 C 30.8 3.331 31.243 2.215 32.129 1.329 C 33.015 0.443 34.131 0 35.475 0 C 36.819 0 37.935 0.443 38.821 1.329 C 39.707 2.215 40.15 3.331 40.15 4.675 C 40.15 5.775 39.799 6.753 39.096 7.608 C 38.393 8.464 37.522 9.014 36.483 9.258 L 36.483 20.625 L 46.933 14.3 C 46.444 12.833 46.674 11.458 47.621 10.175 C 48.568 8.892 49.836 8.25 51.425 8.25 C 52.769 8.25 53.885 8.693 54.771 9.579 C 55.657 10.465 56.1 11.581 56.1 12.925 C 56.1 14.269 55.657 15.385 54.771 16.271 C 53.885 17.157 52.769 17.6 51.425 17.6 C 50.753 17.6 50.126 17.462 49.546 17.188 C 48.965 16.913 48.461 16.561 48.033 16.133 L 37.308 22.642 L 48.4 31.533 C 48.828 31.167 49.301 30.907 49.821 30.754 C 50.34 30.601 50.875 30.525 51.425 30.525 C 52.769 30.525 53.885 30.968 54.771 31.854 C 55.657 32.74 56.1 33.856 56.1 35.2 C 56.1 36.544 55.657 37.66 54.771 38.546 C 53.885 39.432 52.769 39.875 51.425 39.875 C 49.592 39.875 48.232 39.126 47.346 37.629 C 46.46 36.132 46.383 34.619 47.117 33.092 L 36.483 24.567 L 36.483 39.967 C 37.522 40.211 38.378 40.731 39.05 41.525 C 39.722 42.319 40.058 43.297 40.058 44.458 C 40.058 45.742 39.615 46.842 38.729 47.758 C 37.843 48.675 36.758 49.133 35.475 49.133 C 34.192 49.133 33.092 48.675 32.175 47.758 Z" fill="currentColor"></path></svg>
