<svg xmlns="http://www.w3.org/2000/svg" viewBox="0 0 56.467 56.467" fill="none"><path d="M 4.95 56.467 C 3.558 56.467 2.385 55.99 1.431 55.036 C 0.477 54.081 0 52.908 0 51.517 L 0 4.95 C 0 3.558 0.477 2.385 1.431 1.431 C 2.385 0.477 3.558 0 4.95 0 L 40.975 0 L 56.467 15.492 L 56.467 51.517 C 56.467 52.908 55.99 54.081 55.036 55.036 C 54.082 55.99 52.909 56.467 51.517 56.467 L 4.95 56.467 Z M 12.283 41.525 L 44.183 41.525 L 44.183 39.508 L 12.283 39.508 L 12.283 41.525 Z M 12.283 29.242 L 44.183 29.242 L 44.183 27.225 L 12.283 27.225 L 12.283 29.242 Z M 39.508 16.958 L 54.45 16.958 L 39.508 2.017 L 39.508 16.958 Z M 12.283 16.958 L 28.233 16.958 L 28.233 14.942 L 12.283 14.942 L 12.283 16.958 Z" fill="currentColor"></path></svg>
