<svg xmlns="http://www.w3.org/2000/svg" viewBox="0 0 73.7 69.392" fill="none"><path d="M 26.675 69.3 C 23.864 69.3 21.404 68.368 19.296 66.504 C 17.188 64.64 15.858 62.333 15.308 59.583 C 14.636 60.867 13.674 61.86 12.421 62.563 C 11.168 63.265 9.808 63.617 8.342 63.617 C 6.019 63.617 4.049 62.807 2.429 61.188 C 0.81 59.568 0 57.597 0 55.275 C 0 53.014 0.779 51.058 2.338 49.408 C 3.896 47.758 5.897 46.994 8.342 47.117 C 6.936 46.017 5.806 44.611 4.95 42.9 C 4.094 41.189 3.667 39.417 3.667 37.583 C 3.667 35.75 4.11 34.008 4.996 32.358 C 5.882 30.708 7.15 29.364 8.8 28.325 C 8.983 28.569 9.167 28.86 9.35 29.196 C 9.533 29.532 9.686 29.853 9.808 30.158 C 8.464 31.075 7.456 32.206 6.783 33.55 C 6.111 34.894 5.775 36.269 5.775 37.675 C 5.775 41.708 7.211 44.336 10.083 45.558 C 12.956 46.781 15.981 47.697 19.158 48.308 L 19.433 49.042 C 18.761 50.997 18.226 52.663 17.829 54.038 C 17.432 55.413 17.233 56.681 17.233 57.842 C 17.233 60.347 18.165 62.532 20.029 64.396 C 21.893 66.26 24.108 67.192 26.675 67.192 C 29.364 67.192 31.594 66.229 33.367 64.304 C 35.139 62.379 36.575 60.072 37.675 57.383 C 38.775 54.694 39.631 51.899 40.242 48.996 C 40.853 46.093 41.372 43.694 41.8 41.8 L 43.817 42.442 C 43.389 44.703 42.839 47.376 42.167 50.463 C 41.494 53.549 40.547 56.482 39.325 59.263 C 38.103 62.043 36.483 64.411 34.467 66.367 C 32.45 68.322 29.853 69.3 26.675 69.3 Z M 29.975 45.467 C 27.592 43.328 25.422 41.342 23.467 39.508 C 21.511 37.675 19.815 35.857 18.379 34.054 C 16.943 32.251 15.828 30.464 15.033 28.692 C 14.239 26.919 13.842 25.056 13.842 23.1 C 13.842 19.861 14.957 17.142 17.188 14.942 C 19.418 12.742 22.122 11.642 25.3 11.642 C 26.156 11.642 26.965 11.688 27.729 11.779 C 28.493 11.871 29.181 12.039 29.792 12.283 C 29.364 11.611 29.043 10.954 28.829 10.313 C 28.615 9.671 28.508 9.014 28.508 8.342 C 28.508 6.019 29.318 4.049 30.938 2.429 C 32.557 0.81 34.528 0 36.85 0 C 39.172 0 41.143 0.81 42.763 2.429 C 44.382 4.049 45.192 6.019 45.192 8.342 C 45.192 9.014 45.085 9.671 44.871 10.313 C 44.657 10.954 44.336 11.611 43.908 12.283 C 44.519 12.039 45.207 11.871 45.971 11.779 C 46.735 11.688 47.544 11.642 48.4 11.642 C 50.844 11.642 52.999 12.283 54.863 13.567 C 56.726 14.85 58.086 16.561 58.942 18.7 L 57.842 18.7 C 57.414 18.7 57.047 18.731 56.742 18.792 C 56.008 17.203 54.908 15.95 53.442 15.033 C 51.975 14.117 50.294 13.658 48.4 13.658 C 46.078 13.658 44.199 14.239 42.763 15.4 C 41.326 16.561 39.478 18.456 37.217 21.083 L 36.392 21.083 C 34.131 18.394 32.282 16.485 30.846 15.354 C 29.41 14.224 27.561 13.658 25.3 13.658 C 22.611 13.658 20.365 14.56 18.563 16.363 C 16.76 18.165 15.858 20.411 15.858 23.1 C 15.858 24.506 16.21 25.972 16.913 27.5 C 17.615 29.028 18.639 30.647 19.983 32.358 C 21.328 34.069 22.962 35.888 24.888 37.813 C 26.813 39.738 28.997 41.8 31.442 44 L 29.975 45.467 Z M 46.75 69.392 C 46.017 69.392 45.299 69.315 44.596 69.163 C 43.893 69.01 43.206 68.781 42.533 68.475 C 42.656 68.231 42.824 67.925 43.038 67.558 C 43.251 67.192 43.419 66.856 43.542 66.55 C 44.092 66.794 44.657 66.978 45.238 67.1 C 45.818 67.222 46.383 67.283 46.933 67.283 C 49.5 67.283 51.715 66.351 53.579 64.488 C 55.443 62.624 56.375 60.408 56.375 57.842 C 56.375 56.681 56.161 55.428 55.733 54.083 C 55.306 52.739 54.786 51.089 54.175 49.133 L 54.542 48.492 C 57.842 47.881 60.897 46.949 63.708 45.696 C 66.519 44.443 67.925 41.8 67.925 37.767 C 67.925 34.589 66.825 32.206 64.625 30.617 C 62.425 29.028 59.889 28.233 57.017 28.233 C 54.572 28.233 51.715 28.631 48.446 29.425 C 45.176 30.219 41.433 31.319 37.217 32.725 L 36.667 30.708 C 40.639 29.425 44.26 28.325 47.529 27.408 C 50.799 26.492 53.778 26.033 56.467 26.033 C 59.95 26.033 63.067 27.042 65.817 29.058 C 68.567 31.075 69.942 33.978 69.942 37.767 C 69.942 39.6 69.544 41.326 68.75 42.946 C 67.956 44.565 66.825 45.956 65.358 47.117 C 67.803 47.056 69.804 47.835 71.363 49.454 C 72.921 51.074 73.7 53.014 73.7 55.275 C 73.7 57.597 72.89 59.583 71.271 61.233 C 69.651 62.883 67.681 63.708 65.358 63.708 C 63.892 63.708 62.532 63.357 61.279 62.654 C 60.026 61.951 59.064 60.928 58.392 59.583 C 57.781 62.333 56.406 64.656 54.267 66.55 C 52.128 68.444 49.622 69.392 46.75 69.392 Z" fill="currentColor"></path></svg>
